<svg xmlns="http://www.w3.org/2000/svg" width="24" height="24" fill="none" viewBox="0 0 24 24"><path fill="#2a7ebf" d="m10.406 8.719 2.625 6a.72.72 0 0 1-.375.984c-.094.047-.187.047-.281.047-.328 0-.61-.14-.703-.422l-.469-1.078H8.25l-.469 1.078a.72.72 0 0 1-.984.375.72.72 0 0 1-.375-.984l2.625-6c.234-.563 1.125-.563 1.36 0m-1.5 4.031h1.64l-.796-1.875zm6.844-4.5c.375 0 .75.375.75.75v6c0 .422-.375.75-.75.75A.74.74 0 0 1 15 15V9c0-.375.328-.75.75-.75m7.5 4.5H21v3h2.25c.375 0 .75.375.75.75 0 .422-.375.75-.75.75H21V18c0 1.688-1.36 3-3 3h-.75v2.25c0 .422-.375.75-.75.75a.74.74 0 0 1-.75-.75V21h-3v2.25c0 .422-.375.75-.75.75a.74.74 0 0 1-.75-.75V21h-3v2.25c0 .422-.375.75-.75.75a.74.74 0 0 1-.75-.75V21H6c-1.687 0-3-1.312-3-3v-.75H.75A.74.74 0 0 1 0 16.5c0-.375.328-.75.75-.75H3v-3H.75A.74.74 0 0 1 0 12c0-.375.328-.75.75-.75H3v-3H.75A.74.74 0 0 1 0 7.5c0-.375.328-.75.75-.75H3V6c0-1.64 1.313-3 3-3h.75V.75c0-.375.328-.75.75-.75.375 0 .75.375.75.75V3h3V.75c0-.375.328-.75.75-.75.375 0 .75.375.75.75V3h3V.75c0-.375.328-.75.75-.75.375 0 .75.375.75.75V3H18c1.64 0 3 1.36 3 3v.75h2.25c.375 0 .75.375.75.75 0 .422-.375.75-.75.75H21v3h2.25c.375 0 .75.375.75.75 0 .422-.375.75-.75.75M19.5 18V6c0-.797-.703-1.5-1.5-1.5H6c-.844 0-1.5.703-1.5 1.5v12c0 .844.656 1.5 1.5 1.5h12c.797 0 1.5-.656 1.5-1.5"/></svg>