<svg xmlns="http://www.w3.org/2000/svg" width="32" height="28" fill="none" viewBox="0 0 32 28"><g clip-path="url(#a)"><path fill="#f6f6f6" d="M9.5 19a9.5 9.5 0 1 0 0-19 9.5 9.5 0 0 0 0 19"/><path fill="#fff" stroke="#2a5082" stroke-miterlimit="10" stroke-width=".75" d="M.5 23.501H31v.83c0 1.75-1.42 3.17-3.17 3.17H4.005A3.506 3.506 0 0 1 .5 23.996z"/><path stroke="#2a5082" stroke-miterlimit="10" stroke-width=".75" d="M12.906 25.502h5.5"/><path fill="#fff" stroke="#2a5082" stroke-miterlimit="10" stroke-width=".75" d="M26.575 6.5C27.95 6.5 29 7.545 29 8.835V23.5H3V8.835C3 7.5 3.83 6.5 5.2 6.5z"/><path fill="#8fc2ea" d="M22.835 20.5a7 7 0 0 0-.945-2.27l1.535-1.535-2.12-2.12-1.535 1.535a7 7 0 0 0-2.27-.945V13h-3v2.165c-.82.18-1.585.505-2.27.945l-1.535-1.535-2.12 2.12 1.535 1.535a7 7 0 0 0-.945 2.27H7V22h7a2 2 0 1 1 4 0h7v-1.5z"/><path stroke="#2a5082" stroke-miterlimit="10" stroke-width=".75" d="M4.998 22V8.5h22V22"/><path stroke="#2a5082" stroke-miterlimit="10" stroke-width=".75" d="M25 22v-1.5h-2.165a7 7 0 0 0-.945-2.27l1.535-1.535-2.12-2.12-1.535 1.535a7 7 0 0 0-2.27-.945V13h-3v2.165c-.82.18-1.585.505-2.27.945l-1.535-1.535-2.12 2.12 1.535 1.535a7 7 0 0 0-.945 2.27H7V22"/><path stroke="#2a5082" stroke-miterlimit="10" stroke-width=".75" d="M11.5 22.002a4.5 4.5 0 0 1 9 0"/><path stroke="#2a5082" stroke-miterlimit="10" stroke-width=".75" d="M14 22.001a2 2 0 1 1 4 0"/></g><defs><clipPath id="a"><path fill="#fff" d="M0 0h31.25v27.75H0z"/></clipPath></defs></svg>