<svg xmlns="http://www.w3.org/2000/svg" width="30" height="21" fill="none" viewBox="0 0 30 21"><path fill="#2a7ebf" d="M17.438 12.563a.794.794 0 0 1 0-1.079L19.922 9l-2.485-2.437a.8.8 0 0 1 0-1.079.8.8 0 0 1 1.079 0l3 3c.28.282.28.797 0 1.079l-3 3c-.141.14-.328.187-.516.187-.234 0-.422-.047-.562-.187m-4.922-7.079c.28.282.28.797 0 1.079L10.03 9l2.485 2.484c.28.282.28.797 0 1.079-.141.14-.328.187-.516.187-.234 0-.422-.047-.562-.187l-3-3a.794.794 0 0 1 0-1.079l3-3c.28-.28.796-.28 1.078 0M3.75 15a.74.74 0 0 1-.75-.75V3c0-1.64 1.313-3 3-3h18c1.64 0 3 1.36 3 3v11.25c0 .422-.375.75-.75.75a.74.74 0 0 1-.75-.75V3c0-.797-.703-1.5-1.5-1.5H6c-.844 0-1.5.703-1.5 1.5v11.25c0 .422-.375.75-.75.75m25.5 1.5c.375 0 .75.375.75.75V18c0 1.688-1.36 3-3 3H3c-1.687 0-3-1.312-3-3v-.75c0-.375.328-.75.75-.75zm-2.25 3c.797 0 1.5-.656 1.5-1.5h-27c0 .844.656 1.5 1.5 1.5z"/></svg>