<svg xmlns="http://www.w3.org/2000/svg" width="21" height="24" fill="none" viewBox="0 0 21 24"><path fill="#2a7ebf" d="M21 17.25c0 .984-.656 1.828-1.5 2.156V22.5h.75c.375 0 .75.375.75.75 0 .422-.375.75-.75.75H3c-1.687 0-3-1.312-3-3V3.75C0 1.688 1.64 0 3.75 0h15C19.969 0 21 1.031 21 2.25zM1.5 3.75v14.672C1.922 18.187 2.438 18 3 18h1.5V1.5h-.75A2.25 2.25 0 0 0 1.5 3.75M18 22.5v-3H3c-.844 0-1.5.703-1.5 1.5 0 .844.656 1.5 1.5 1.5zm.75-4.5c.375 0 .75-.328.75-.75v-15c0-.375-.375-.75-.75-.75H6V18zM16.5 6c.375 0 .75.375.75.75 0 .422-.375.75-.75.75H9a.74.74 0 0 1-.75-.75c0-.375.328-.75.75-.75zm0 4.5c.375 0 .75.375.75.75 0 .422-.375.75-.75.75H9a.74.74 0 0 1-.75-.75c0-.375.328-.75.75-.75z"/></svg>