<svg xmlns="http://www.w3.org/2000/svg" width="32" height="29" fill="none" viewBox="0 0 32 29"><g clip-path="url(#a)"><path fill="#f6f6f6" d="M9.436 0C4.326 0 .186 4.14.186 9.25c0 1.805.525 3.48 1.415 4.9.915-1.115 2.39-1.775 4-1.775.275 0 .54.025.805.07a4.5 4.5 0 0 1-.14-1.085 4.438 4.438 0 0 1 6.085-4.125 7.27 7.27 0 0 1 3.975-4.14A9.2 9.2 0 0 0 9.436 0"/><path stroke="#2a5082" stroke-miterlimit="10" stroke-width=".75" d="M19.684 21.5h6.005c2.895 0 4.9-2.275 4.9-5.215 0-2.72-1.805-4.915-4.385-5.39.07-.4.11-.75.11-1.165 0-3.985-3.23-7.185-7.21-7.185-3.09 0-5.72 1.965-6.745 4.695a4.438 4.438 0 0 0-6.085 4.125c0 .375.05.735.14 1.085q-.391-.069-.805-.07c-2.655 0-4.955 1.795-4.955 4.45s2.255 4.675 4.9 4.675h8.135"/><path stroke="#6d6d6d" stroke-miterlimit="10" stroke-width=".75" d="M.186 21.665C1.636 23.275 3.226 24 6.09 24h2.095m22.772-2.5c-.645 1.415-2.435 2.5-4.18 2.5h-2.095"/><path stroke="#2a5082" stroke-miterlimit="10" stroke-width=".75" d="M15.186 14.5v-4m7 0v3.065l-4 2.435v7"/><path fill="#8fc2ea" stroke="#2a5082" stroke-miterlimit="10" stroke-width=".75" d="M21.37 10.235a1.24 1.24 0 0 1-.26-1.735 1.24 1.24 0 0 1 1.734-.26c.55.405.67 1.185.26 1.735-.405.55-1.185.67-1.735.26Zm-3.61 2.94a1.24 1.24 0 0 1-.26-1.735 1.24 1.24 0 0 1 1.735-.26c.55.405.67 1.185.26 1.735-.405.55-1.185.67-1.735.26Zm-3.35 3.455a1.24 1.24 0 0 1-.26-1.734 1.24 1.24 0 0 1 1.735-.26c.55.405.67 1.185.26 1.735-.405.55-1.185.67-1.735.26Z"/><path stroke="#2a5082" stroke-miterlimit="10" stroke-width=".75" d="M11.186 13.5v3.055l4 2.945V25"/><path fill="#8fc2ea" stroke="#2a5082" stroke-miterlimit="10" stroke-width=".75" d="M11.731 13.19c.55-.405.67-1.185.26-1.735a1.24 1.24 0 0 0-1.735-.26 1.24 1.24 0 0 0-.26 1.735c.405.55 1.185.67 1.735.26Zm2.673-2.97a1.24 1.24 0 0 1-.26-1.736 1.24 1.24 0 0 1 1.735-.26c.55.405.67 1.185.26 1.735-.405.55-1.185.67-1.735.26Z"/><path stroke="#2a5082" stroke-miterlimit="10" stroke-width=".75" d="M22.686 19.501h2.564c1.83 0 3.436-1.67 3.436-3.5m-19 3.499h-4.16c-1.41 0-2.84-1.09-2.84-2.5m15.5 7.001v1m0 .999v1m-3-1v1m0 1v1"/></g><defs><clipPath id="a"><path fill="#fff" d="M0 0h31.185v29H0z"/></clipPath></defs></svg>