<svg xmlns="http://www.w3.org/2000/svg" width="31" height="21" fill="none" viewBox="0 0 31 21"><path fill="#2a7ebf" d="M27.375 12.281a4.72 4.72 0 0 1 2.39 5.203 4.66 4.66 0 0 1-4.5 3.516H16.5c-2.25 0-4.172-1.64-4.547-3.89A4.594 4.594 0 0 1 15.047 12c.234-1.734 1.5-3.187 3.14-3.75a4.63 4.63 0 0 1 4.782 1.172c.328-.094.703-.14 1.031-.14 1.734 0 3.188 1.312 3.375 3m-2.11 7.219c1.641 0 3-1.219 3.094-2.86.141-1.593-.984-3.046-2.625-3.328.375-.843 0-1.828-.797-2.296-.796-.47-1.828-.235-2.39.468a3.124 3.124 0 0 0-3.797-1.828c-1.594.469-2.531 2.016-2.203 3.61H16.5c-1.125 0-2.156.562-2.719 1.547s-.562 2.203 0 3.14c.563.985 1.594 1.594 2.719 1.547zM10.407 5.25c0-.375.328-.75.75-.75.375 0 .75.375.75.75v6c0 .422-.375.75-.75.75-.422 0-.797-.328-.797-.75zm-7.5 14.25h8.39c.329.563.75 1.078 1.267 1.5h-9.61C1.36 21 0 19.688 0 18V3c0-1.64 1.313-3 2.953-3h14.953c1.64 0 2.953 1.36 2.953 3l.047 3.656a5.8 5.8 0 0 0-1.265-.14c-.094 0-.188 0-.235.046V3c0-.797-.703-1.5-1.5-1.5h-15c-.844 0-1.5.703-1.5 1.5v15c0 .844.657 1.5 1.5 1.5m4.5-14.25c0-.375.328-.75.75-.75.375 0 .75.375.75.75l-.047 6c0 .422-.328.75-.703.75-.422 0-.797-.328-.797-.75zm-3 0c0-.375.282-.75.703-.75.375 0 .75.375.75.75v6a.74.74 0 0 1-.75.75c-.375 0-.75-.328-.75-.75z"/></svg>