<svg xmlns="http://www.w3.org/2000/svg" width="30" height="24" fill="none" viewBox="0 0 30 24"><path fill="#2a7ebf" d="M3 0c1.36 0 2.531.984 2.86 2.25h9.234A3.02 3.02 0 0 1 18 0c1.64 0 3 1.36 3 3a3.02 3.02 0 0 1-2.25 2.906v4.688C20.016 10.969 21 12.14 21 13.5c0 1.688-1.36 3-3 3a2.97 2.97 0 0 1-2.906-2.25H5.859A2.96 2.96 0 0 1 3 16.5c-1.687 0-3-1.312-3-3 0-1.36.938-2.531 2.25-2.906V5.906A2.97 2.97 0 0 1 0 3c0-1.64 1.313-3 3-3m12.094 3.75H5.859C5.625 4.828 4.781 5.672 3.75 5.906v4.688c1.031.281 1.875 1.125 2.11 2.156h9.234c.234-1.031 1.078-1.875 2.156-2.156V5.906a2.82 2.82 0 0 1-2.156-2.156M19.5 13.5c0-.797-.703-1.5-1.5-1.5-.844 0-1.5.703-1.5 1.5 0 .844.656 1.5 1.5 1.5.797 0 1.5-.656 1.5-1.5m-18 0c0 .844.656 1.5 1.5 1.5.797 0 1.5-.656 1.5-1.5 0-.797-.703-1.5-1.5-1.5-.844 0-1.5.703-1.5 1.5M19.5 3c0-.797-.703-1.5-1.5-1.5-.844 0-1.5.703-1.5 1.5 0 .844.656 1.5 1.5 1.5.797 0 1.5-.656 1.5-1.5m-18 0c0 .844.656 1.5 1.5 1.5.797 0 1.5-.656 1.5-1.5 0-.797-.703-1.5-1.5-1.5-.844 0-1.5.703-1.5 1.5m22.594 6.75A3.02 3.02 0 0 1 27 7.5c1.64 0 3 1.36 3 3a3.02 3.02 0 0 1-2.25 2.906v4.688C29.016 18.469 30 19.64 30 21c0 1.688-1.36 3-3 3a2.97 2.97 0 0 1-2.906-2.25h-9.235A2.96 2.96 0 0 1 12 24c-1.687 0-3-1.312-3-3 0-1.36.938-2.531 2.25-2.906V16.5c0-.375.328-.75.75-.75.375 0 .75.375.75.75v1.594c1.031.281 1.875 1.125 2.11 2.156h9.234c.234-1.031 1.078-1.875 2.156-2.156v-4.688a2.82 2.82 0 0 1-2.156-2.156H22.5a.74.74 0 0 1-.75-.75c0-.375.328-.75.75-.75zm1.406.75c0 .844.656 1.5 1.5 1.5.797 0 1.5-.656 1.5-1.5 0-.797-.703-1.5-1.5-1.5-.844 0-1.5.703-1.5 1.5m1.5 9c-.844 0-1.5.703-1.5 1.5 0 .844.656 1.5 1.5 1.5.797 0 1.5-.656 1.5-1.5 0-.797-.703-1.5-1.5-1.5M10.5 21c0 .844.656 1.5 1.5 1.5.797 0 1.5-.656 1.5-1.5 0-.797-.703-1.5-1.5-1.5-.844 0-1.5.703-1.5 1.5"/></svg>