<svg xmlns="http://www.w3.org/2000/svg" width="30" height="21" fill="none" viewBox="0 0 30 21"><path fill="#2a7ebf" d="M29.203 4.922c.469.187.797.61.797 1.078 0 .516-.328.938-.797 1.125l-13.219 4.734a3.66 3.66 0 0 1-2.016 0L5.064 8.672a4.8 4.8 0 0 0-1.172 2.203c.328.234.609.656.609 1.125s-.234.89-.562 1.172l1.124 6.984c.094.469-.28.844-.703.844H1.594c-.422 0-.797-.375-.703-.844l1.125-6.984A1.52 1.52 0 0 1 1.5 12c0-.61.375-1.125.89-1.36.188-.937.61-1.78 1.172-2.53L.75 7.124A1.17 1.17 0 0 1 0 6c0-.469.281-.89.75-1.078L13.969.188C14.297.094 14.625 0 15 0c.328 0 .656.094.938.188zM15.234 9.75 25.594 6 15.187 2.297c-.093 0-.28-.047-.468 0L4.359 6l1.5.563 8.907-2.766c.375-.14.797.094.937.515a.78.78 0 0 1-.515.938L8.203 7.406l6.563 2.344c.046 0 .234.047.468 0m5.954 1.828 2.156-.75.61 5.906C24 19.594 19.453 21 15 21c-4.5 0-9-1.406-9-4.266l.61-5.906 2.156.75-.516 5.25c0 .516 2.297 1.922 6.75 1.922 4.406 0 6.75-1.406 6.75-1.922z"/></svg>