<svg xmlns="http://www.w3.org/2000/svg" width="30" height="21" fill="none" viewBox="0 0 30 21"><path fill="#2a7ebf" d="M28.922 4.922c.656.234 1.078.703 1.078 1.453 0 .703-.422 1.266-1.078 1.5l-13.406 4.781c-.188.094-.375.094-.563.094-.14 0-.328 0-.515-.094L3.75 8.812V13.5l1.453 6.61c.047.234 0 .468-.14.609a.76.76 0 0 1-.61.281H1.5a.9.9 0 0 1-.61-.234.81.81 0 0 1-.14-.657l1.5-6.515V8.297l-1.219-.469A1.55 1.55 0 0 1 0 6.375c0-.656.375-1.219 1.031-1.453L14.438.094c.328-.094.75-.094 1.078 0zM2.438 19.5h1.124L3 17.016zm12.515-8.25L28.5 6.375 15 1.547 1.5 6.375l2.203.844 11.063-3.422a.78.78 0 0 1 .937.515.78.78 0 0 1-.515.938L6.047 8.063zm7.64.797c.423-.094.798.234.845.61l.515 4.077c.14 1.078-.469 2.11-1.547 2.625-2.25 1.032-4.781 1.594-7.312 1.641h-.188c-2.578-.047-5.11-.61-7.36-1.64C6.47 18.843 5.86 17.812 6 16.733l.516-4.078c.046-.375.422-.703.843-.61a.747.747 0 0 1 .657.845L7.5 16.92c-.094.423.188.845.656 1.079 2.063.938 4.406 1.453 6.75 1.5h.14c2.345-.047 4.688-.562 6.75-1.5.47-.234.75-.656.657-1.078l-.515-4.031a.747.747 0 0 1 .656-.844"/></svg>