<svg xmlns="http://www.w3.org/2000/svg" width="30" height="24" fill="none" viewBox="0 0 30 24"><path fill="#2a7ebf" d="M3 0c1.219 0 2.297.797 2.766 1.875h9.422C15.656.797 16.734 0 18 0c1.64 0 3 1.36 3 3 0 1.266-.797 2.344-1.875 2.813v4.921C20.203 11.204 21 12.281 21 13.5c0 1.688-1.36 3-3 3a3.02 3.02 0 0 1-2.812-1.875H5.765C5.296 15.75 4.219 16.5 3 16.5c-1.687 0-3-1.312-3-3 0-1.219.75-2.297 1.875-2.766V5.813A3.02 3.02 0 0 1 0 3c0-1.64 1.313-3 3-3m0 3.75c.375 0 .75-.328.75-.75 0-.328-.281-.656-.656-.703C3.047 2.297 3 2.25 3 2.25c-.422 0-.75.375-.75.75v.141c.047.375.375.609.75.609m15-1.5c-.047 0-.094.047-.14.047a.705.705 0 0 0-.61.703c0 .422.328.75.75.75a.705.705 0 0 0 .703-.61c0-.046.047-.093.047-.14 0-.375-.375-.75-.75-.75m-2.812 1.875H5.765c-.328.75-.891 1.36-1.641 1.688v4.921a3.12 3.12 0 0 1 1.64 1.641h9.423c.328-.75.89-1.312 1.687-1.64V5.812c-.797-.329-1.36-.938-1.687-1.688M18.75 13.5s-.047-.047-.047-.094c-.047-.375-.375-.656-.703-.656-.422 0-.75.375-.75.75s.234.703.61.75H18c.375 0 .75-.328.75-.75M3 12.75a.76.76 0 0 0-.75.656v.094c0 .422.328.75.75.75h.094a.76.76 0 0 0 .656-.75c0-.375-.375-.75-.75-.75m19.078-1.125c-.281-.562-.656-1.031-1.078-1.453v-.797h3.188C24.656 8.297 25.734 7.5 27 7.5c1.64 0 3 1.36 3 3 0 1.266-.797 2.344-1.875 2.813v4.921C29.203 18.704 30 19.781 30 21c0 1.688-1.36 3-3 3a3.02 3.02 0 0 1-2.812-1.875h-9.422C14.296 23.25 13.219 24 12 24c-1.687 0-3-1.312-3-3 0-1.219.75-2.297 1.875-2.766V16.5h2.25v1.734a3.12 3.12 0 0 1 1.64 1.641h9.423c.328-.75.89-1.312 1.687-1.64v-4.922c-.797-.329-1.36-.938-1.687-1.688zM27.75 10.5c0-.375-.375-.75-.75-.75-.047 0-.094.047-.14.047a.705.705 0 0 0-.61.703c0 .422.328.75.75.75a.705.705 0 0 0 .703-.61c0-.046.047-.093.047-.14M11.25 21c0 .422.328.75.75.75h.094a.76.76 0 0 0 .656-.75c0-.375-.375-.75-.75-.75a.76.76 0 0 0-.75.656zm15.61.75H27c.375 0 .75-.328.75-.75 0 0-.047-.047-.047-.094-.047-.375-.375-.656-.703-.656-.422 0-.75.375-.75.75s.234.703.61.75"/></svg>