<svg xmlns="http://www.w3.org/2000/svg" width="234" height="108" fill="none" viewBox="0 0 234 108"><path fill="#f6f6f6" fill-rule="evenodd" d="M224 0c5.412 0 9.8 4.388 9.8 9.8s-4.388 9.8-9.8 9.8h-56c5.412 0 9.8 4.388 9.8 9.8s-4.388 9.8-9.8 9.8h30.8c5.412 0 9.8 4.388 9.8 9.8s-4.388 9.8-9.8 9.8h-14.244c-6.824 0-12.356 4.388-12.356 9.8q0 5.413 8.4 9.8c5.412 0 9.8 4.388 9.8 9.8s-4.388 9.8-9.8 9.8H64.4c-5.412 0-9.8-4.388-9.8-9.8s4.388-9.8 9.8-9.8H9.8c-5.412 0-9.8-4.388-9.8-9.8s4.388-9.8 9.8-9.8h56c5.412 0 9.8-4.388 9.8-9.8s-4.388-9.8-9.8-9.8h-35c-5.412 0-9.8-4.388-9.8-9.8s4.388-9.8 9.8-9.8h56c-5.412 0-9.8-4.388-9.8-9.8S81.388 0 86.8 0zm0 39.2c5.412 0 9.8 4.388 9.8 9.8s-4.388 9.8-9.8 9.8-9.8-4.388-9.8-9.8 4.388-9.8 9.8-9.8" clip-rule="evenodd"/><path stroke="#2a7ebf" stroke-width="1.4" d="M85.53 12.34c.969-.12 2.574-.035 3.721-.033h.001l7.081.002 23.16-.001h21.077l6.358-.001c1.131 0 2.811-.043 3.796.076h.005a9.4 9.4 0 0 1 4.934 2.096h.001a9.55 9.55 0 0 1 3.439 6.498l.001.004c.521 5.304-3.44 9.81-8.733 10.311h-.002l-.1.01c-1.192.1-3.088.044-4.4.044l-7.712-.001H94.232l-5.584.002c-1.88.002-3.358.016-4.746-.272-1.269-.263-2.475-.784-3.797-1.851l-.266-.222a9.47 9.47 0 0 1-3.233-6.41c-.424-5.395 3.51-9.843 8.891-10.25h.017z"/><path stroke="#2a7ebf" stroke-linecap="round" stroke-width="1.4" d="M146.923 19.598h-35.811c-1.524 0-3.053.017-4.573-.022m23.335 4.638-15.696-.001-4.997.001c-.88 0-1.764.016-2.642-.023"/><path stroke="#2a7ebf" stroke-width="1.4" d="M95.2 18.535q.078.005.185.03a1 1 0 0 1 .173.067c.08.08.111.174.084.322a1.07 1.07 0 0 1-.31.54c-1.343 1.291-2.652 2.657-3.952 3.947-.64.636-1.15 1.212-1.768 1.713a.6.6 0 0 1-.262.006c-.911-.73-1.854-1.769-2.737-2.66l-.006-.006-.005-.005-.369-.345a6 6 0 0 1-.36-.365 2 2 0 0 1-.245-.317c-.054-.092-.05-.121-.049-.099l-.002-.035v-.063a.5.5 0 0 1 .228-.38.33.33 0 0 1 .183-.06c.042 0 .1.014.174.074.95.787 1.877 1.775 2.814 2.7l.495.488.492-.491 3.182-3.179c.348-.347.709-.74 1.127-1.138.36-.342.678-.603.928-.744Zm-9.67 21.502c.969-.12 2.574-.034 3.721-.033h.001l7.081.002 23.16-.001h21.077l6.358-.001c1.131 0 2.811-.043 3.796.076l.005.001a9.4 9.4 0 0 1 4.934 2.095h.001a9.55 9.55 0 0 1 3.439 6.498l.001.005c.521 5.304-3.44 9.81-8.733 10.31h-.002l-.1.01c-1.192.1-3.088.045-4.4.044l-7.712-.001H113.35l-19.118.001h-5.584c-1.88.003-3.358.017-4.746-.27-1.269-.264-2.475-.785-3.797-1.852l-.266-.222a9.46 9.46 0 0 1-3.233-6.409c-.424-5.396 3.51-9.844 8.891-10.25h.017z"/><path stroke="#2a7ebf" stroke-linecap="round" stroke-width="1.4" d="m146.923 47.296-27.164-.001-8.647.001c-1.524 0-3.053.016-4.573-.023m23.335 4.637h-15.696l-4.997.001c-.88 0-1.764.016-2.642-.022"/><path stroke="#2a7ebf" stroke-width="1.4" d="M95.2 46.232q.078.005.185.03a1 1 0 0 1 .173.067c.08.08.111.174.084.322a1.07 1.07 0 0 1-.31.54c-1.343 1.291-2.652 2.658-3.952 3.948-.64.635-1.15 1.211-1.768 1.713a.6.6 0 0 1-.262.006c-.911-.73-1.854-1.77-2.737-2.66l-.006-.007-.005-.005-.369-.345a6 6 0 0 1-.36-.364 2 2 0 0 1-.245-.318c-.054-.092-.05-.12-.049-.099l-.002-.035v-.063a.5.5 0 0 1 .228-.38.33.33 0 0 1 .183-.06c.042 0 .1.014.174.075.95.786 1.877 1.775 2.814 2.699l.495.488.492-.491 3.182-3.179c.348-.347.709-.74 1.127-1.137.36-.343.678-.604.928-.745Zm-9.67 21.502c.969-.12 2.574-.034 3.721-.033h.001l7.081.002h44.237l6.358-.002c1.131 0 2.811-.043 3.796.076l.005.001a9.4 9.4 0 0 1 4.934 2.095h.001a9.55 9.55 0 0 1 3.439 6.498l.001.005c.521 5.304-3.44 9.81-8.733 10.31h-.002l-.1.01c-1.192.1-3.088.045-4.4.044H94.232l-5.584.001c-1.88.002-3.358.016-4.746-.271-1.269-.263-2.475-.785-3.797-1.852l-.266-.221a9.46 9.46 0 0 1-3.233-6.41c-.424-5.396 3.51-9.843 8.891-10.25h.017z"/><path stroke="#2a7ebf" stroke-linecap="round" stroke-width="1.4" d="m146.923 74.993-27.164-.001-8.647.001c-1.524 0-3.053.016-4.573-.022m23.335 4.637h-20.693c-.88 0-1.764.016-2.642-.022"/><path stroke="#2a7ebf" stroke-width="1.4" d="M95.2 73.93q.078.005.185.03a1 1 0 0 1 .173.066c.08.081.111.174.084.323a1.07 1.07 0 0 1-.31.539c-1.343 1.292-2.652 2.658-3.952 3.948-.64.636-1.15 1.211-1.768 1.713a.6.6 0 0 1-.262.006c-.911-.73-1.854-1.77-2.737-2.66l-.006-.006-.005-.005-.369-.346a6 6 0 0 1-.36-.364 2 2 0 0 1-.245-.318c-.054-.092-.05-.12-.049-.098l-.002-.035v-.064a.5.5 0 0 1 .228-.38.33.33 0 0 1 .183-.06c.042 0 .1.014.174.075.95.786 1.877 1.775 2.814 2.7l.495.487.492-.49 3.182-3.18c.348-.347.709-.74 1.127-1.137.36-.343.678-.604.928-.744Z"/><path stroke="#f6f6f6" stroke-linecap="round" stroke-width="1.4" d="m165.398 91 15.4 15.4"/><path stroke="#2a7ebf" stroke-linecap="round" stroke-linejoin="round" stroke-width="1.4" d="M188.048 44.488h-11.446m20.3-10.888h-24.047m33.847 0h-3.11M62.046 75.289H50.6M55.5 63H31.454M23.3 63h-5.91"/></svg>