<svg width="21" height="24" viewBox="0 0 21 24" fill="none" xmlns="http://www.w3.org/2000/svg">
<path d="M12.5156 12.9844L14.8125 13.3125C15.75 13.4531 16.125 14.5781 15.4688 15.2344L13.7812 16.8281L14.1562 19.125C14.3438 20.0625 13.3594 20.7656 12.5625 20.3438L10.4531 19.2656L8.39062 20.3438C7.59375 20.7656 6.60938 20.0625 6.79688 19.125L7.17188 16.8281L5.48438 15.2344C4.82812 14.5781 5.20312 13.4531 6.14062 13.3125L8.4375 12.9844L9.46875 10.875C9.89062 10.0312 11.0625 10.0312 11.4844 10.875L12.5156 12.9844ZM9.42188 14.3438L7.07812 14.6719L8.76562 16.3125L8.39062 18.6562L10.4531 17.5312L12.5625 18.6562L12.1875 16.3125L13.875 14.6719L11.5312 14.3438L10.4531 12.2344L9.42188 14.3438ZM6 3H15V0.75C15 0.375 15.3281 0 15.75 0C16.125 0 16.5 0.375 16.5 0.75V3H18C19.6406 3 21 4.35938 21 6V21C21 22.6875 19.6406 24 18 24H3C1.3125 24 0 22.6875 0 21V6C0 4.35938 1.3125 3 3 3H4.5V0.75C4.5 0.375 4.82812 0 5.25 0C5.625 0 6 0.375 6 0.75V3ZM1.5 21C1.5 21.8438 2.15625 22.5 3 22.5H18C18.7969 22.5 19.5 21.8438 19.5 21V9H1.5V21ZM1.5 6V7.5H19.5V6C19.5 5.20312 18.7969 4.5 18 4.5H3C2.15625 4.5 1.5 5.20312 1.5 6Z" fill="#2A7EBF"/>
</svg>
