<svg xmlns="http://www.w3.org/2000/svg" width="32" height="32" fill="none" viewBox="0 0 32 32"><path fill="#6d6d6d" d="M20.5 20.828c-.656.375-1.64 0-2.39.188-.704.187-1.36.984-2.11.984-.797 0-1.453-.797-2.156-.984-.75-.188-1.735.187-2.39-.188-.657-.375-.798-1.406-1.313-1.969-.563-.515-1.594-.703-1.97-1.312-.374-.656 0-1.64-.187-2.39C7.797 14.452 7 13.796 7 13c0-.75.797-1.406.984-2.11.188-.75-.187-1.734.188-2.39s1.406-.797 1.969-1.312c.515-.563.703-1.594 1.312-1.97.656-.374 1.64 0 2.39-.187C14.548 4.844 15.204 4 16 4c.75 0 1.406.844 2.063 1.031.75.188 1.734-.187 2.39.188s.797 1.406 1.36 1.968c.515.516 1.546.657 1.921 1.313s0 1.64.188 2.39c.187.704 1.031 1.36 1.031 2.11 0 .797-.797 1.453-.984 2.156-.188.75.187 1.735-.188 2.39-.375.657-1.406.798-1.968 1.313-.516.563-.704 1.594-1.313 1.97M12.25 13c0 2.11 1.64 3.75 3.75 3.75A3.73 3.73 0 0 0 19.75 13 3.76 3.76 0 0 0 16 9.25 3.73 3.73 0 0 0 12.25 13M7.047 24.344 8.594 20.5a10.7 10.7 0 0 0 6.469 3l-1.594 3.844c-.14.375-.516.656-.985.656h-.046c-.422 0-.797-.234-.985-.61l-1.031-1.968-2.11.422c-.374.093-.796-.047-1.078-.375a1.1 1.1 0 0 1-.187-1.125M23.359 20.5l1.547 3.844c.14.375.094.797-.187 1.125s-.703.468-1.078.375l-2.11-.422L20.5 27.39c-.187.422-.562.609-.984.609-.047 0-.047 0-.047.047a1.29 1.29 0 0 1-1.032-.703L16.892 23.5a10.7 10.7 0 0 0 6.468-3"/></svg>