<svg xmlns="http://www.w3.org/2000/svg" width="24" height="21" fill="none" viewBox="0 0 24 21"><path fill="#2a7ebf" d="M21.375 0c.61 0 1.125.516 1.125 1.125a1.11 1.11 0 0 1-1.125 1.125H4.125A1.85 1.85 0 0 0 2.25 4.125v12.75c0 1.078.797 1.875 1.875 1.875h15.75a1.85 1.85 0 0 0 1.875-1.875v-8.25a1.88 1.88 0 0 0-1.875-1.875H5.625c-.656 0-1.125-.469-1.125-1.125 0-.61.469-1.125 1.125-1.125h14.25C22.125 4.5 24 6.375 24 8.625v8.25A4.13 4.13 0 0 1 19.875 21H4.125A4.1 4.1 0 0 1 0 16.875V4.125A4.13 4.13 0 0 1 4.125 0zM16.5 12.75c0-.797.656-1.5 1.5-1.5.797 0 1.5.703 1.5 1.5 0 .844-.703 1.5-1.5 1.5a1.48 1.48 0 0 1-1.5-1.5"/></svg>