<svg xmlns="http://www.w3.org/2000/svg" width="24" height="21" fill="none" viewBox="0 0 24 21"><path fill="#2a7ebf" d="M21.75 0c.375 0 .75.375.75.75 0 .422-.375.75-.75.75h-18A2.25 2.25 0 0 0 1.5 3.75v13.5a2.22 2.22 0 0 0 2.25 2.25h16.5a2.25 2.25 0 0 0 2.25-2.25V6.75c0-1.219-1.031-2.25-2.25-2.25h-15a.74.74 0 0 1-.75-.75c0-.375.328-.75.75-.75h15A3.76 3.76 0 0 1 24 6.75v10.5A3.73 3.73 0 0 1 20.25 21H3.75C1.64 21 0 19.36 0 17.25V3.75C0 1.688 1.64 0 3.75 0zm-4.875 12c0-.61.469-1.125 1.125-1.125.61 0 1.125.516 1.125 1.125A1.11 1.11 0 0 1 18 13.125c-.656 0-1.125-.469-1.125-1.125"/></svg>