<svg xmlns="http://www.w3.org/2000/svg" width="32" height="31" fill="none" viewBox="0 0 32 31"><g clip-path="url(#a)"><path fill="#f6f6f6" d="M13 24c6.627 0 12-5.373 12-12S19.627 0 13 0 1 5.373 1 12s5.373 12 12 12"/><path stroke="#6d6d6d" stroke-miterlimit="10" stroke-width=".75" d="M21 5.499v3m-1.5-1.5h3M28 6.5v3m-1.5-1.501h3m-5.5-7v3m-1.5-1.5h3"/><path stroke="#2a5082" stroke-miterlimit="10" stroke-width=".75" d="M27.5 30H30m1 0h1M0 30h1"/><path fill="#8fc2ea" stroke="#2a5082" stroke-miterlimit="10" stroke-width=".75" d="M22 12.999h-4.5v15H22zM9 6H4.5v22H9z"/><path fill="#f6f6f6" stroke="#2a5082" stroke-miterlimit="10" stroke-width=".75" d="M15.5 17.5H11V28h4.5zm13 1.999H24v8.5h4.5z"/><path stroke="#2a5082" stroke-miterlimit="10" stroke-width=".75" d="M26.5 30H2"/></g><defs><clipPath id="a"><path fill="#fff" d="M0 0h32v30.25H0z"/></clipPath></defs></svg>