<svg width="18" height="24" viewBox="0 0 18 24" fill="none" xmlns="http://www.w3.org/2000/svg">
<path d="M12.8438 0.328125C13.0781 0.140625 13.3594 0 13.6406 0C14.4375 0 15 0.84375 14.7188 1.59375L11.5312 10.5H16.6875C17.3906 10.5 18 11.1094 18 11.7656C18 12.1406 17.8125 12.5156 17.5312 12.75L5.10938 23.7188C4.875 23.9062 4.59375 24 4.3125 24C3.51562 24 2.95312 23.2031 3.23438 22.4531L6.42188 13.5H1.17188C0.515625 13.5 0 12.9844 0 12.3281C0 11.9531 0.140625 11.625 0.375 11.3906L12.8438 0.328125ZM12.8906 2.29688L1.96875 12H7.5C7.73438 12 7.96875 12.1406 8.10938 12.3281C8.25 12.5156 8.25 12.7969 8.20312 13.0312L5.0625 21.75L16.0781 12H10.5C10.2188 12 9.98438 11.9062 9.84375 11.7188C9.70312 11.4844 9.70312 11.25 9.75 11.0156L12.8906 2.29688Z" fill="#2A7EBF"/>
</svg>
