<svg xmlns="http://www.w3.org/2000/svg" width="24" height="23" fill="none" viewBox="0 0 24 23"><path fill="#2a7ebf" d="M21 4.5c1.64 0 3 1.36 3 3v12c0 1.688-1.36 3-3 3H3c-1.687 0-3-1.312-3-3v-12c0-1.64 1.313-3 3-3h3V2.25A2.25 2.25 0 0 1 8.25 0h7.5C16.969 0 18 1.031 18 2.25V4.5zM7.5 2.25V4.5h9V2.25c0-.375-.375-.75-.75-.75h-7.5c-.422 0-.75.375-.75.75M4.5 21V6H3c-.844 0-1.5.703-1.5 1.5v12c0 .844.656 1.5 1.5 1.5zM18 21V6H6v15zm4.5-1.5v-12c0-.797-.703-1.5-1.5-1.5h-1.5v15H21c.797 0 1.5-.656 1.5-1.5M8.25 15a.74.74 0 0 1-.75-.75v-1.5c0-.375.328-.75.75-.75h2.25V9.75c0-.375.328-.75.75-.75h1.5c.375 0 .75.375.75.75V12h2.25c.375 0 .75.375.75.75v1.5c0 .422-.375.75-.75.75H13.5v2.25c0 .422-.375.75-.75.75h-1.5a.74.74 0 0 1-.75-.75V15z"/></svg>