<svg xmlns="http://www.w3.org/2000/svg" width="24" height="23" fill="none" viewBox="0 0 24 23"><path fill="#2a7ebf" d="M8.25 15a.74.74 0 0 1-.75-.75v-1.5c0-.375.328-.75.75-.75h2.25V9.75c0-.375.328-.75.75-.75h1.5c.375 0 .75.375.75.75V12h2.25c.375 0 .75.375.75.75v1.5c0 .422-.375.75-.75.75H13.5v2.25c0 .422-.375.75-.75.75h-1.5a.74.74 0 0 1-.75-.75V15zM21 4.5c1.64 0 3 1.36 3 3v12c0 1.688-1.36 3-3 3H3c-1.687 0-3-1.312-3-3v-12c0-1.64 1.313-3 3-3h3V3c0-1.64 1.313-3 3-3h6c1.64 0 3 1.36 3 3v1.5zM8.25 3v1.5h7.5V3c0-.375-.375-.75-.75-.75H9c-.422 0-.75.375-.75.75m-4.5 17.25V6.75H3c-.422 0-.75.375-.75.75v12c0 .422.328.75.75.75zm14.25 0V6.75H6v13.5zm3.75-.75v-12c0-.375-.375-.75-.75-.75h-.75v13.5H21c.375 0 .75-.328.75-.75"/></svg>