<svg xmlns="http://www.w3.org/2000/svg" width="32" height="27" fill="none" viewBox="0 0 32 27"><path fill="#f6f6f6" d="M15.934 26.869c5.898 0 10.679-4.781 10.679-10.679 0-5.897-4.781-10.678-10.679-10.678-5.897 0-10.678 4.78-10.678 10.678s4.78 10.679 10.678 10.679"/><path stroke="#6d6d6d" stroke-miterlimit="10" stroke-width=".75" d="M10.29 20.386c1.225 1.932 3.376 3.224 5.832 3.224a6.88 6.88 0 0 0 5.832-3.224"/><path fill="#8fc2ea" stroke="#2a5082" stroke-miterlimit="10" stroke-width=".75" d="M8.145 6.626c-2.705 2.105-4.444 5.497-4.444 9.056h6.29a5.2 5.2 0 0 1 1.714-3.849zm7.903-2.782c-2.146 0-4.15.59-5.868 1.607l3.56 5.222a5.18 5.18 0 0 1 4.616 0l3.56-5.222a11.43 11.43 0 0 0-5.868-1.607Z"/><path fill="#fff" d="m23.956 6.757-3.483 5.1c.117.107.223.224.325.336l1.312 2.837c.026.204.04.143.04.651h6.159a11.4 11.4 0 0 0-4.353-8.929z"/><path stroke="#2a5082" stroke-miterlimit="10" stroke-width=".75" d="M22.11 15.03c.026.204.04.143.04.651h6.159a11.4 11.4 0 0 0-4.353-8.929l-3.483 5.1c.117.107.223.224.325.336"/><path fill="#fff" stroke="#2a5082" stroke-miterlimit="10" stroke-width=".75" d="m23.364 12.55-5.955 1.745a2.24 2.24 0 0 0-2.13-.117 2.234 2.234 0 0 0-1.048 2.975 2.23 2.23 0 0 0 2.975 1.047 2.24 2.24 0 0 0 1.246-1.734l5.085-3.554z"/><path stroke="#6d6d6d" stroke-miterlimit="10" stroke-width=".75" d="M6.354 3.585C2.642 6.478.252 10.989.252 16.058M24.105 2.462A15.74 15.74 0 0 0 16.051.255c-2.944 0-5.695.808-8.055 2.207m23.748 13.546A15.45 15.45 0 0 0 25.77 3.794"/></svg>