<svg xmlns="http://www.w3.org/2000/svg" width="18" height="24" fill="none" viewBox="0 0 18 24"><path fill="#2a7ebf" d="M12.844.328c.234-.187.515-.328.797-.328.797 0 1.359.844 1.078 1.594L11.53 10.5h5.156c.704 0 1.313.61 1.313 1.266 0 .375-.187.75-.469.984L5.11 23.719a1.27 1.27 0 0 1-.796.281 1.15 1.15 0 0 1-1.079-1.547L6.422 13.5h-5.25A1.16 1.16 0 0 1 0 12.328c0-.375.14-.703.375-.937zm.047 1.969L1.969 12H7.5c.234 0 .469.14.61.328.14.188.14.469.093.703l-3.14 8.719L16.078 12H10.5c-.281 0-.516-.094-.656-.281-.14-.235-.14-.469-.094-.703z"/></svg>