<svg xmlns="http://www.w3.org/2000/svg" width="31" height="28" fill="none" viewBox="0 0 31 28"><g clip-path="url(#a)"><path fill="#f6f6f6" d="M21.56 19.31a9.25 9.25 0 1 0 0-18.5 9.25 9.25 0 0 0 0 18.5"/><path fill="#8fc2ea" stroke="#2a5082" stroke-linejoin="round" stroke-width=".75" d="m19.076 7.015-.885-2.14-.655-.27-1.55.64c-.22-.06-.37-.1-.585-.16a7 7 0 0 0-1.165-1.16c-.06-.22-.1-.37-.16-.585l.645-1.55-.27-.655-2.14-.885-.655.27-.645 1.55c-.195.115-.33.19-.53.3a7.2 7.2 0 0 0-1.645 0c-.195-.11-.33-.19-.53-.3L7.666.52 7.011.25l-2.14.885-.27.655.64 1.55c-.06.22-.1.37-.16.585q-.651.519-1.16 1.165c-.22.06-.37.1-.585.16l-1.55-.645-.655.27-.885 2.14.27.655 1.55.645c.11.195.19.33.3.53a7.2 7.2 0 0 0 0 1.645c-.11.195-.19.33-.3.53l-1.55.64-.27.655.885 2.14.655.27 1.55-.64c.22.06.37.1.585.16q.519.651 1.165 1.16c.06.22.1.37.16.585l-.645 1.55.27.655 2.14.885.655-.27.645-1.55c.195-.115.33-.19.53-.3.54.06 1.09.065 1.645 0 .195.11.33.19.53.3l.64 1.55.655.27 2.14-.885.27-.655-.64-1.55c.06-.22.1-.37.16-.585q.651-.519 1.16-1.165c.22-.06.37-.1.585-.16l1.55.645.655-.27.885-2.14-.27-.655-1.55-.645c-.115-.195-.19-.33-.3-.53a7.2 7.2 0 0 0 0-1.645c.11-.195.19-.33.3-.53l1.55-.64z"/><path fill="#fff" stroke="#2a5082" stroke-linejoin="round" stroke-width=".75" d="m29.75 19.035-.485-1.17-.655-.27-.805.335c-.215-.06-.365-.1-.585-.155a5 5 0 0 0-.63-.63c-.06-.22-.1-.37-.155-.585l.335-.805-.27-.655-1.17-.485-.655.27-.335.805c-.195.115-.33.19-.525.305a5.3 5.3 0 0 0-.89 0c-.195-.115-.33-.19-.525-.305l-.335-.805-.655-.27-1.17.485-.27.655.335.805c-.06.215-.1.365-.155.585a5 5 0 0 0-.63.63c-.22.06-.37.1-.585.155l-.805-.335-.655.27-.485 1.17.27.655.805.335c.115.195.19.33.305.525a5.3 5.3 0 0 0 0 .89c-.115.195-.19.33-.305.525l-.805.335-.27.655.485 1.17.655.27.805-.335c.215.06.365.1.585.155a5 5 0 0 0 .63.63c.06.22.1.37.155.585l-.335.805.27.655 1.17.485.655-.27.335-.805c.195-.115.33-.19.525-.305q.441.037.89 0c.195.115.33.19.525.305l.335.805.655.27 1.17-.485.27-.655-.335-.805c.06-.215.1-.365.155-.585a5 5 0 0 0 .63-.63c.22-.06.37-.1.585-.155l.805.335.655-.27.485-1.17-.27-.655-.805-.335c-.115-.195-.19-.33-.305-.525a5.3 5.3 0 0 0 0-.89c.115-.195.19-.33.305-.525l.805-.335z"/><path fill="#fff" stroke="#2a5082" stroke-miterlimit="10" stroke-width=".75" d="M25.406 20.145a2.207 2.207 0 0 1-1.19 2.88 2.207 2.207 0 0 1-2.88-1.19 2.207 2.207 0 0 1 1.19-2.88 2.207 2.207 0 0 1 2.88 1.19ZM9.56 13.06a3.5 3.5 0 1 0 0-7 3.5 3.5 0 0 0 0 7Z"/></g><defs><clipPath id="a"><path fill="#fff" d="M0 0h30.81v27.615H0z"/></clipPath></defs></svg>