<svg width="24" height="24" viewBox="0 0 24 24" fill="none" xmlns="http://www.w3.org/2000/svg">
<path d="M12 3.375C12.6094 3.375 13.125 3.89062 13.125 4.5C13.125 5.15625 12.6094 5.625 12 5.625C11.3438 5.625 10.875 5.15625 10.875 4.5C10.875 3.89062 11.3438 3.375 12 3.375ZM12 13.5C12.7969 13.5 13.5469 13.8281 14.0625 14.3906L19.0781 11.3906C19.4531 11.1562 19.9219 11.2969 20.1094 11.625C20.3438 12 20.2031 12.4688 19.875 12.6562L14.8594 15.6562C14.9531 15.9375 15 16.2188 15 16.5C15 18.1875 13.6406 19.5 11.9531 19.5C10.3125 19.5 8.95312 18.1875 8.95312 16.5C8.95312 14.8594 10.3125 13.5 11.9531 13.5H12ZM10.5 16.5C10.5 17.3438 11.1562 18 12 18C12.7969 18 13.5 17.3438 13.5 16.5C13.5 15.7031 12.7969 15 12 15C11.1562 15 10.5 15.7031 10.5 16.5ZM17.25 5.625C17.8594 5.625 18.375 6.14062 18.375 6.75C18.375 7.40625 17.8594 7.875 17.25 7.875C16.5938 7.875 16.125 7.40625 16.125 6.75C16.125 6.14062 16.5938 5.625 17.25 5.625ZM4.5 13.125C3.84375 13.125 3.375 12.6562 3.375 12C3.375 11.3906 3.84375 10.875 4.5 10.875C5.10938 10.875 5.625 11.3906 5.625 12C5.625 12.6562 5.10938 13.125 4.5 13.125ZM6.75 5.625C7.35938 5.625 7.875 6.14062 7.875 6.75C7.875 7.40625 7.35938 7.875 6.75 7.875C6.09375 7.875 5.625 7.40625 5.625 6.75C5.625 6.14062 6.09375 5.625 6.75 5.625ZM12 24C5.34375 24 0 18.6562 0 12C0 5.39062 5.34375 0 12 0C18.6094 0 24 5.39062 24 12C24 18.6562 18.6094 24 12 24ZM22.5 12C22.5 6.23438 17.7656 1.5 12 1.5C6.1875 1.5 1.5 6.23438 1.5 12C1.5 17.8125 6.1875 22.5 12 22.5C17.7656 22.5 22.5 17.8125 22.5 12Z" fill="#2A7EBF"/>
</svg>
