<svg xmlns="http://www.w3.org/2000/svg" width="24" height="24" fill="none" viewBox="0 0 24 24"><path fill="#2a7ebf" d="M12 3.75c.797 0 1.5.703 1.5 1.5 0 .844-.703 1.5-1.5 1.5a1.48 1.48 0 0 1-1.5-1.5c0-.797.656-1.5 1.5-1.5m0 15.375A2.62 2.62 0 0 1 9.375 16.5c0-1.406 1.172-2.625 2.625-2.625.469 0 .89.14 1.313.375l5.156-3.516a1.076 1.076 0 0 1 1.547.282 1.076 1.076 0 0 1-.282 1.547l-5.156 3.562c0 .14.047.234.047.375 0 1.453-1.219 2.625-2.625 2.625M16.5 6c.797 0 1.5.703 1.5 1.5 0 .844-.703 1.5-1.5 1.5A1.48 1.48 0 0 1 15 7.5c0-.797.656-1.5 1.5-1.5M5.25 13.5a1.48 1.48 0 0 1-1.5-1.5c0-.797.656-1.5 1.5-1.5.797 0 1.5.703 1.5 1.5 0 .844-.703 1.5-1.5 1.5M7.5 6C8.297 6 9 6.703 9 7.5 9 8.344 8.297 9 7.5 9A1.48 1.48 0 0 1 6 7.5C6 6.703 6.656 6 7.5 6M12 24C5.344 24 0 18.656 0 12 0 5.39 5.344 0 12 0c6.61 0 12 5.39 12 12 0 6.656-5.39 12-12 12m9.75-12c0-5.344-4.406-9.75-9.75-9.75-5.39 0-9.75 4.406-9.75 9.75 0 5.39 4.36 9.75 9.75 9.75 5.344 0 9.75-4.36 9.75-9.75"/></svg>