<svg xmlns="http://www.w3.org/2000/svg" width="36" height="36" fill="none" viewBox="0 0 36 36"><g stroke-miterlimit="10" stroke-width=".75" clip-path="url(#a)"><path stroke="#6d6d6d" d="M31.42 13a14.5 14.5 0 0 1 1.08 5.5c0 2.54-.65 4.925-1.8 7m-25.4 0a14.44 14.44 0 0 1-1.8-7c0-3.175 1.02-6.11 2.75-8.5"/><path stroke="#2a5082" d="M26 28h-1.5m5 0H28m-1 1v1.5m0-4.999v1.5M9 28l-1 1m3.5-3.499-1 1m0 1.499 1 1M8 25.501l1 1M19 10.06a8.5 8.5 0 0 1 7.5 8.44A8.5 8.5 0 0 1 18 27m-8-5.62c-.325-.9-.5-1.87-.5-2.88 0-2.34.945-4.465 2.48-6m15.145-1a11.45 11.45 0 0 1 2.375 7c0 1.595-.325 3.12-.915 4.5"/><path stroke="#2a5082" d="M6.5 18.5c0-3.485 1.55-6.61 4-8.72A11.45 11.45 0 0 1 18 7m4.5 22.085c-1.38.59-2.905.915-4.5.915-.86 0-1.695-.095-2.5-.275-.69-.155-1.36-.37-2-.64M25.5 5.5V7m0 2v1.5m-1-2.5H23m5 0h-1.5"/><path fill="#8fc2ea" stroke="#2a5082" d="m18.095 13 1.67 3.385 3.735.54-2.7 2.635.635 3.72-3.34-1.76-3.34 1.76.64-3.72-2.7-2.635 3.73-.54z"/></g><defs><clipPath id="a"><path fill="#fff" d="M3.25 5.5h29.5v25H3.25z"/></clipPath></defs></svg>