<svg width="42" height="37" viewBox="0 0 42 37" fill="none" xmlns="http://www.w3.org/2000/svg">
<path d="M0 5.25C0 2.37891 2.29688 0 5.25 0H36.75C39.6211 0 42 2.37891 42 5.25V31.5C42 34.4531 39.6211 36.75 36.75 36.75H5.25C2.29688 36.75 0 34.4531 0 31.5V5.25ZM15.75 10.5H39.375V5.25C39.375 3.85547 38.1445 2.625 36.75 2.625H15.75V10.5ZM13.125 2.625H5.25C3.77344 2.625 2.625 3.85547 2.625 5.25V10.5H13.125V2.625ZM2.625 13.125V23.625H13.125V13.125H2.625ZM2.625 26.25V31.5C2.625 32.9766 3.77344 34.125 5.25 34.125H13.125V26.25H2.625ZM15.75 34.125H36.75C38.1445 34.125 39.375 32.9766 39.375 31.5V26.25H15.75V34.125ZM39.375 23.625V13.125H15.75V23.625H39.375Z" fill="#2A7EBF"/>
</svg>
