<svg xmlns="http://www.w3.org/2000/svg" width="28" height="24" fill="none" viewBox="0 0 28 24"><path fill="#2a7ebf" d="M0 1.125C0 .515.469 0 1.125 0H4.5c.516 0 .984.422 1.078.938L7.547 11.25h14.812l2.016-7.5h-2.25C21.469 3.75 21 3.281 21 2.625c0-.61.469-1.125 1.125-1.125h3.75c.328 0 .656.188.89.469.188.281.282.656.188.984l-2.625 9.75c-.14.469-.61.797-1.078.797H7.969l.422 2.25h14.484c.61 0 1.125.516 1.125 1.125A1.11 1.11 0 0 1 22.875 18H7.453c-.516 0-.984-.375-1.078-.89L3.563 2.25H1.124C.469 2.25 0 1.781 0 1.125M10.5 21.75A2.25 2.25 0 0 1 8.25 24 2.22 2.22 0 0 1 6 21.75a2.25 2.25 0 0 1 2.25-2.25c1.219 0 2.25 1.031 2.25 2.25m9 0a2.25 2.25 0 0 1 2.25-2.25c1.219 0 2.25 1.031 2.25 2.25A2.25 2.25 0 0 1 21.75 24a2.22 2.22 0 0 1-2.25-2.25M18 4.875c.61 0 1.125.516 1.125 1.125A1.11 1.11 0 0 1 18 7.125h-6c-.656 0-1.125-.469-1.125-1.125 0-.61.469-1.125 1.125-1.125z"/></svg>