<svg xmlns="http://www.w3.org/2000/svg" width="28" height="24" fill="none" viewBox="0 0 28 24"><path fill="#2a7ebf" d="M18 6.75c.375 0 .75.375.75.75 0 .422-.375.75-.75.75h-6a.74.74 0 0 1-.75-.75c0-.375.328-.75.75-.75zm-18-6C0 .375.328 0 .75 0h3c.328 0 .61.281.703.61l.234.89H25.36c.985 0 1.735.984 1.453 1.922l-2.53 9c-.188.656-.75 1.078-1.454 1.078H7.406l.657 3H23.25c.375 0 .75.375.75.75 0 .422-.375.75-.75.75H7.5a.76.76 0 0 1-.75-.562L3.14 1.5H.75A.74.74 0 0 1 0 .75M22.828 12l2.531-9H5.016l2.015 9zM11.25 21.375c0 1.453-1.219 2.625-2.625 2.625A2.62 2.62 0 0 1 6 21.375c0-1.406 1.172-2.625 2.625-2.625 1.406 0 2.625 1.219 2.625 2.625M8.625 20.25A1.11 1.11 0 0 0 7.5 21.375c0 .656.469 1.125 1.125 1.125a1.11 1.11 0 0 0 1.125-1.125 1.14 1.14 0 0 0-1.125-1.125m10.125 1.125c0-1.406 1.172-2.625 2.625-2.625 1.406 0 2.625 1.219 2.625 2.625C24 22.828 22.781 24 21.375 24a2.62 2.62 0 0 1-2.625-2.625m2.625 1.125a1.11 1.11 0 0 0 1.125-1.125 1.14 1.14 0 0 0-1.125-1.125 1.11 1.11 0 0 0-1.125 1.125c0 .656.469 1.125 1.125 1.125"/></svg>