<svg xmlns="http://www.w3.org/2000/svg" width="25" height="25" fill="none" viewBox="0 0 25 25"><path fill="#3d3d3d" d="M18 9.75c0-2.906-1.594-5.625-4.125-7.125-2.578-1.453-5.719-1.453-8.25 0A8.25 8.25 0 0 0 1.5 9.75a8.27 8.27 0 0 0 4.125 7.172c2.531 1.453 5.672 1.453 8.25 0C16.406 15.422 18 12.703 18 9.75m-1.922 7.406c-1.687 1.5-3.937 2.344-6.328 2.344C4.36 19.5 0 15.14 0 9.75 0 4.406 4.36 0 9.75 0c5.344 0 9.75 4.406 9.75 9.75 0 2.438-.89 4.64-2.344 6.375l6.61 6.61c.28.28.28.796 0 1.078-.282.28-.797.28-1.078 0z"/></svg>