<svg xmlns="http://www.w3.org/2000/svg" width="30" height="24" fill="none" viewBox="0 0 30 24"><path fill="#2a7ebf" d="M4.922 7.875c0-1.406 1.219-2.625 2.625-2.625 1.453 0 2.625 1.219 2.625 2.625A2.62 2.62 0 0 1 7.547 10.5c-1.406 0-2.625-1.172-2.625-2.625M7.547 6.75a1.14 1.14 0 0 0-1.125 1.125A1.11 1.11 0 0 0 7.547 9c.656 0 1.125-.469 1.125-1.125A1.11 1.11 0 0 0 7.547 6.75m2.531-4.687q.703.28 1.266.703l1.265-.375a.73.73 0 0 1 .75.187 8.4 8.4 0 0 1 1.688 2.953c.094.235 0 .516-.188.703l-.984.891c.047.281.047.563.047.797v.75l.937.89c.188.188.282.47.188.704a8.4 8.4 0 0 1-1.688 2.953.73.73 0 0 1-.75.187l-1.171-.375a5.7 5.7 0 0 1-1.36.797l-.281 1.219a.89.89 0 0 1-.516.562 10.4 10.4 0 0 1-3.422 0 .89.89 0 0 1-.515-.562l-.282-1.219a5.7 5.7 0 0 1-1.359-.797l-1.172.375a.73.73 0 0 1-.75-.187 8.4 8.4 0 0 1-1.687-2.953C0 10.03.094 9.75.28 9.563l.938-.891v-.75c0-.234 0-.516.047-.797l-.985-.89C.094 6.046 0 5.764.094 5.53A8.4 8.4 0 0 1 1.78 2.578a.73.73 0 0 1 .75-.187l1.266.375a5.5 5.5 0 0 1 1.265-.703L5.345.75A.88.88 0 0 1 5.86.188C6.422.094 6.984 0 7.547 0c.61 0 1.172.094 1.734.188a.88.88 0 0 1 .516.562zm-7.265 4.5-.094.75c0 .234-.047.421-.047.609 0 .187.047.375.047.562l.094.75-1.126 1.032c.235.562.516 1.078.891 1.547l1.453-.422.61.468c.328.235.656.422 1.03.61l.657.281.375 1.453c.281.047.563.047.844.047.328 0 .61 0 .89-.047l.376-1.453.656-.281a7.5 7.5 0 0 0 1.031-.61l.61-.468 1.453.422a6.4 6.4 0 0 0 .89-1.547l-1.125-1.032.094-.75V7.312l-.094-.75 1.125-1.03a6.3 6.3 0 0 0-.89-1.548l-1.5.422-.61-.422a3.8 3.8 0 0 0-.937-.562l-.703-.281-.376-1.547a5 5 0 0 0-.89-.094c-.281 0-.563.047-.844.094L6.328 3.14l-.703.28a4 4 0 0 0-.937.563l-.61.422-1.5-.422a6.3 6.3 0 0 0-.89 1.547zm19.03 6.937c1.407 0 2.626 1.219 2.626 2.625 0 1.453-1.219 2.625-2.625 2.625a2.62 2.62 0 0 1-2.625-2.625c0-1.406 1.172-2.625 2.625-2.625m1.126 2.625A1.14 1.14 0 0 0 21.844 15a1.11 1.11 0 0 0-1.125 1.125c0 .656.468 1.125 1.125 1.125a1.11 1.11 0 0 0 1.125-1.125m4.687 2.531q-.281.703-.703 1.266l.375 1.265a.73.73 0 0 1-.187.75 8.4 8.4 0 0 1-2.953 1.688c-.235.094-.516 0-.704-.187l-.937-.985c-.235.047-.516.047-.75.047h-.75l-.89.938c-.188.187-.47.28-.704.187a8.4 8.4 0 0 1-2.953-1.687.73.73 0 0 1-.187-.75l.375-1.172a5.7 5.7 0 0 1-.797-1.36l-1.22-.281a.85.85 0 0 1-.562-.562 10.2 10.2 0 0 1 0-3.375c.094-.235.282-.47.563-.516l1.219-.281a5.7 5.7 0 0 1 .797-1.36l-.375-1.172a.73.73 0 0 1 .187-.75 8.4 8.4 0 0 1 2.953-1.687c.235-.094.516 0 .703.187l.89.938c.235 0 .517-.047.75-.047.235 0 .517.047.75.047l.938-.938c.188-.187.47-.28.703-.187a8.4 8.4 0 0 1 2.954 1.687.73.73 0 0 1 .187.75l-.375 1.266q.422.563.703 1.266l1.313.28c.281.048.468.282.562.517.094.562.188 1.124.188 1.687 0 .61-.094 1.172-.188 1.688a.85.85 0 0 1-.562.562zm-4.5-7.265-.75-.094c-.234 0-.422-.047-.61-.047-.187 0-.374.047-.562.047l-.75.094-1.03-1.125a6.3 6.3 0 0 0-1.548.89l.422 1.453-.469.61c-.234.281-.422.656-.609 1.031l-.281.656-1.453.375c-.047.281-.047.563-.047.844 0 .328 0 .61.047.89l1.453.376.281.656c.188.375.375.703.61 1.031l.468.61-.422 1.453a6.3 6.3 0 0 0 1.547.89l1.031-1.125.75.094h1.173l.75-.094 1.03 1.125a6.3 6.3 0 0 0 1.547-.89l-.422-1.5.422-.61a3.8 3.8 0 0 0 .563-.937l.281-.703 1.547-.375c.047-.282.094-.563.094-.891 0-.281-.047-.562-.094-.844l-1.547-.375-.281-.703a3.8 3.8 0 0 0-.563-.937l-.422-.61.422-1.5a6.3 6.3 0 0 0-1.547-.89z"/></svg>