<svg width="30" height="24" viewBox="0 0 30 24" fill="none" xmlns="http://www.w3.org/2000/svg">
<path d="M4.92188 7.875C4.92188 6.46875 6.14062 5.25 7.54688 5.25C9 5.25 10.1719 6.46875 10.1719 7.875C10.1719 9.32812 9 10.5 7.54688 10.5C6.14062 10.5 4.92188 9.32812 4.92188 7.875ZM7.54688 6.75C6.9375 6.75 6.42188 7.26562 6.42188 7.875C6.42188 8.53125 6.9375 9 7.54688 9C8.20312 9 8.67188 8.53125 8.67188 7.875C8.67188 7.26562 8.20312 6.75 7.54688 6.75ZM10.0781 2.0625C10.5469 2.25 10.9688 2.48438 11.3438 2.76562L12.6094 2.39062C12.8906 2.29688 13.1719 2.39062 13.3594 2.57812C14.1094 3.42188 14.6719 4.40625 15.0469 5.53125C15.1406 5.76562 15.0469 6.04688 14.8594 6.23438L13.875 7.125C13.9219 7.40625 13.9219 7.6875 13.9219 7.92188C13.9219 8.15625 13.9219 8.4375 13.9219 8.67188L14.8594 9.5625C15.0469 9.75 15.1406 10.0312 15.0469 10.2656C14.6719 11.3906 14.1094 12.375 13.3594 13.2188C13.1719 13.4062 12.8906 13.5 12.6094 13.4062L11.4375 13.0312C11.0156 13.3594 10.5469 13.6406 10.0781 13.8281L9.79688 15.0469C9.70312 15.3281 9.51562 15.5156 9.28125 15.6094C8.71875 15.7031 8.15625 15.75 7.54688 15.75C6.98438 15.75 6.42188 15.7031 5.85938 15.6094C5.625 15.5156 5.4375 15.3281 5.34375 15.0469L5.0625 13.8281C4.59375 13.6406 4.125 13.3594 3.70312 13.0312L2.53125 13.4062C2.25 13.5 1.96875 13.4062 1.78125 13.2188C1.03125 12.375 0.46875 11.3906 0.09375 10.2656C0 10.0312 0.09375 9.75 0.28125 9.5625L1.21875 8.67188C1.21875 8.4375 1.21875 8.15625 1.21875 7.92188C1.21875 7.6875 1.21875 7.40625 1.26562 7.125L0.28125 6.23438C0.09375 6.04688 0 5.76562 0.09375 5.53125C0.46875 4.40625 1.03125 3.42188 1.78125 2.57812C1.96875 2.39062 2.25 2.29688 2.53125 2.39062L3.79688 2.76562C4.17188 2.48438 4.59375 2.25 5.0625 2.0625L5.34375 0.75C5.4375 0.46875 5.625 0.28125 5.85938 0.1875C6.42188 0.09375 6.98438 0 7.54688 0C8.15625 0 8.71875 0.09375 9.28125 0.1875C9.51562 0.28125 9.70312 0.46875 9.79688 0.75L10.0781 2.0625ZM2.8125 6.5625L2.71875 7.3125C2.71875 7.54688 2.67188 7.73438 2.67188 7.92188C2.67188 8.10938 2.71875 8.29688 2.71875 8.48438L2.8125 9.23438L1.6875 10.2656C1.92188 10.8281 2.20312 11.3438 2.57812 11.8125L4.03125 11.3906L4.64062 11.8594C4.96875 12.0938 5.29688 12.2812 5.67188 12.4688L6.32812 12.75L6.70312 14.2031C6.98438 14.25 7.26562 14.25 7.54688 14.25C7.875 14.25 8.15625 14.25 8.4375 14.2031L8.8125 12.75L9.46875 12.4688C9.84375 12.2812 10.1719 12.0938 10.5 11.8594L11.1094 11.3906L12.5625 11.8125C12.9375 11.3438 13.2188 10.8281 13.4531 10.2656L12.3281 9.23438L12.4219 8.48438C12.4219 8.29688 12.4219 8.10938 12.4219 7.92188C12.4219 7.73438 12.4219 7.54688 12.4219 7.3125L12.3281 6.5625L13.4531 5.53125C13.2188 4.96875 12.9375 4.45312 12.5625 3.98438L11.0625 4.40625L10.4531 3.98438C10.1719 3.75 9.84375 3.5625 9.51562 3.42188L8.8125 3.14062L8.4375 1.59375C8.15625 1.54688 7.875 1.5 7.54688 1.5C7.26562 1.5 6.98438 1.54688 6.70312 1.59375L6.32812 3.14062L5.625 3.42188C5.29688 3.5625 4.96875 3.75 4.6875 3.98438L4.07812 4.40625L2.57812 3.98438C2.20312 4.45312 1.92188 4.96875 1.6875 5.53125L2.8125 6.5625ZM21.8438 13.5C23.25 13.5 24.4688 14.7188 24.4688 16.125C24.4688 17.5781 23.25 18.75 21.8438 18.75C20.3906 18.75 19.2188 17.5781 19.2188 16.125C19.2188 14.7188 20.3906 13.5 21.8438 13.5ZM22.9688 16.125C22.9688 15.5156 22.4531 15 21.8438 15C21.1875 15 20.7188 15.5156 20.7188 16.125C20.7188 16.7812 21.1875 17.25 21.8438 17.25C22.4531 17.25 22.9688 16.7812 22.9688 16.125ZM27.6562 18.6562C27.4688 19.125 27.2344 19.5469 26.9531 19.9219L27.3281 21.1875C27.4219 21.4688 27.3281 21.75 27.1406 21.9375C26.2969 22.6875 25.3125 23.25 24.1875 23.625C23.9531 23.7188 23.6719 23.625 23.4844 23.4375L22.5469 22.4531C22.3125 22.5 22.0312 22.5 21.7969 22.5C21.5625 22.5 21.2812 22.5 21.0469 22.5L20.1562 23.4375C19.9688 23.625 19.6875 23.7188 19.4531 23.625C18.3281 23.25 17.3438 22.6875 16.5 21.9375C16.3125 21.75 16.2188 21.4688 16.3125 21.1875L16.6875 20.0156C16.3594 19.5938 16.0781 19.125 15.8906 18.6562L14.6719 18.375C14.3906 18.2812 14.2031 18.0938 14.1094 17.8125C14.0156 17.2969 13.9688 16.7344 13.9688 16.125C13.9688 15.5625 14.0156 15 14.1094 14.4375C14.2031 14.2031 14.3906 13.9688 14.6719 13.9219L15.8906 13.6406C16.0781 13.1719 16.3594 12.7031 16.6875 12.2812L16.3125 11.1094C16.2188 10.8281 16.3125 10.5469 16.5 10.3594C17.3438 9.60938 18.3281 9.04688 19.4531 8.67188C19.6875 8.57812 19.9688 8.67188 20.1562 8.85938L21.0469 9.79688C21.2812 9.79688 21.5625 9.75 21.7969 9.75C22.0312 9.75 22.3125 9.79688 22.5469 9.79688L23.4844 8.85938C23.6719 8.67188 23.9531 8.57812 24.1875 8.67188C25.3125 9.04688 26.2969 9.60938 27.1406 10.3594C27.3281 10.5469 27.4219 10.8281 27.3281 11.1094L26.9531 12.375C27.2344 12.75 27.4688 13.1719 27.6562 13.6406L28.9688 13.9219C29.25 13.9688 29.4375 14.2031 29.5312 14.4375C29.625 15 29.7188 15.5625 29.7188 16.125C29.7188 16.7344 29.625 17.2969 29.5312 17.8125C29.4375 18.0938 29.25 18.2812 28.9688 18.375L27.6562 18.6562ZM23.1562 11.3906L22.4062 11.2969C22.1719 11.2969 21.9844 11.25 21.7969 11.25C21.6094 11.25 21.4219 11.2969 21.2344 11.2969L20.4844 11.3906L19.4531 10.2656C18.8906 10.5 18.375 10.7812 17.9062 11.1562L18.3281 12.6094L17.8594 13.2188C17.625 13.5 17.4375 13.875 17.25 14.25L16.9688 14.9062L15.5156 15.2812C15.4688 15.5625 15.4688 15.8438 15.4688 16.125C15.4688 16.4531 15.4688 16.7344 15.5156 17.0156L16.9688 17.3906L17.25 18.0469C17.4375 18.4219 17.625 18.75 17.8594 19.0781L18.3281 19.6875L17.9062 21.1406C18.375 21.5156 18.8906 21.7969 19.4531 22.0312L20.4844 20.9062L21.2344 21C21.4219 21 21.6094 21 21.7969 21C21.9844 21 22.1719 21 22.4062 21L23.1562 20.9062L24.1875 22.0312C24.75 21.7969 25.2656 21.5156 25.7344 21.1406L25.3125 19.6406L25.7344 19.0312C25.9688 18.75 26.1562 18.4219 26.2969 18.0938L26.5781 17.3906L28.125 17.0156C28.1719 16.7344 28.2188 16.4531 28.2188 16.125C28.2188 15.8438 28.1719 15.5625 28.125 15.2812L26.5781 14.9062L26.2969 14.2031C26.1562 13.875 25.9688 13.5469 25.7344 13.2656L25.3125 12.6562L25.7344 11.1562C25.2656 10.7812 24.75 10.5 24.1875 10.2656L23.1562 11.3906Z" fill="#2A7EBF"/>
</svg>
