<svg width="27" height="25" viewBox="0 0 27 25" fill="none" xmlns="http://www.w3.org/2000/svg">
<path d="M21 4.40625V9.79688L25.2656 11.4375C26.2969 11.8125 27 12.7969 27 13.875V19.4531C27 20.5312 26.3438 21.4688 25.4062 21.8906L20.9062 23.8594C20.25 24.1406 19.5 24.1406 18.8438 23.8594L13.5 21.6562L8.10938 23.8594C7.45312 24.1406 6.70312 24.1406 6.04688 23.8594L1.54688 21.8906C0.609375 21.4688 0 20.5312 0 19.4531V13.875C0 12.7969 0.65625 11.8125 1.6875 11.4375L6 9.79688V4.40625C6 3.32812 6.65625 2.34375 7.73438 1.96875L12.6094 0.234375C13.1719 0 13.7812 0 14.3438 0.234375L19.2188 1.96875C20.2969 2.34375 21 3.32812 21 4.40625ZM13.5938 2.34375C13.5 2.29688 13.4531 2.29688 13.3594 2.34375L9.5625 3.70312L13.5 5.20312L17.3906 3.70312L13.5938 2.34375ZM12.375 11.25V7.17188L8.25 5.57812V9.79688L12.375 11.25ZM14.625 11.25L18.75 9.79688V5.57812L14.625 7.17188V11.25ZM8.25 16.6406V21.4219L12.375 19.6875V15.0938L8.25 16.6406ZM2.4375 19.8281L6 21.375V16.6406L2.25 15.2344V19.4531C2.25 19.6406 2.29688 19.7344 2.4375 19.8281ZM18.75 16.6406L14.625 15.0938V19.6875L18.75 21.4219V16.6406ZM21 21.375L24.5156 19.8281C24.6562 19.7344 24.75 19.6406 24.75 19.4531V15.2344L21 16.6406V21.375ZM7.26562 11.8125C7.17188 11.7656 7.07812 11.8125 6.98438 11.8125L3.28125 13.2188L7.125 14.6719L11.0156 13.1719L7.26562 11.8125ZM15.9375 13.1719L19.875 14.6719L23.6719 13.2188L19.9688 11.8125C19.875 11.8125 19.7812 11.7656 19.6875 11.8125L15.9375 13.1719Z" fill="#2A7EBF"/>
</svg>
