<svg xmlns="http://www.w3.org/2000/svg" width="27" height="25" fill="none" viewBox="0 0 27 25"><path fill="#2a7ebf" d="M20.625 4.031v6l4.875 1.735c.89.328 1.5 1.172 1.5 2.156v5.906a2.24 2.24 0 0 1-1.406 2.063l-4.875 2.015a2.23 2.23 0 0 1-1.735 0l-5.484-2.25-5.531 2.25a2.23 2.23 0 0 1-1.735 0L1.36 21.891C.516 21.563 0 20.719 0 19.828v-5.906c0-.985.563-1.828 1.453-2.156l4.875-1.735h.047v-6c0-.937.563-1.781 1.453-2.11L12.703.189a2.2 2.2 0 0 1 1.547 0l4.875 1.734c.89.328 1.5 1.172 1.5 2.11m-6.89-2.437a.96.96 0 0 0-.516 0L8.344 3.328c-.094.047-.188.14-.281.188l5.39 2.062 5.438-2.062c-.094-.047-.188-.141-.282-.188zm-5.86 8.437 4.828 1.735v-4.83L7.828 5.063v4.968zm6.375 1.735 4.828-1.735h.047V5.062L14.25 6.938zm-6.797 4.64V22.5l5.25-2.156V14.53zm-5.531 4.125 4.031 1.64v-5.765l-4.5-1.875v5.297c0 .281.188.563.469.703M19.5 16.406l-5.25-1.875v5.813L19.5 22.5zm1.5 5.766 4.031-1.64c.282-.141.469-.423.469-.704v-5.297L21 16.406zM7.36 11.438a.96.96 0 0 0-.516 0l-4.781 1.734 4.687 1.922 5.344-1.922zm7.5 1.734 5.343 1.922 4.688-1.922-4.782-1.735a.96.96 0 0 0-.515 0z"/></svg>